<svg viewBox="0 0 200 200" xmlns="http://www.w3.org/2000/svg">
<polygon points="100,10 170,50 170,150 100,190 30,150 30,50" fill="#1a1a2e"/>
<polygon points="100,22 158,57 158,143 100,178 42,143 42,57" fill="none" stroke="#c9a84c" stroke-width="2"/>
<polygon points="100,38 145,63 145,137 100,162 55,137 55,63" fill="none" stroke="#c9a84c" stroke-width="0.7" opacity="0.5"/>
<path d="M100,65 C100,65 75,80 75,95 C75,107 83,113 91,109 C89,116 85,120 85,120 L115,120 C115,120 111,116 109,109 C117,113 125,107 125,95 C125,80 100,65 100,65Z" fill="#c9a84c"/>
</svg>
