<svg viewBox="0 0 680 400" xmlns="http://www.w3.org/2000/svg"><circle cx="340" cy="200" r="165" fill="none" stroke="#CC0000" stroke-width="2" opacity="0.3"/><circle cx="340" cy="200" r="158" fill="white"/><circle cx="340" cy="200" r="155" fill="none" stroke="#CC0000" stroke-width="5"/><circle cx="340" cy="200" r="148" fill="none" stroke="#CC0000" stroke-width="1" opacity="0.4"/><rect x="333" y="58" width="14" height="284" fill="#CC0000" opacity="0.07" rx="7"/><rect x="198" y="193" width="284" height="14" fill="#CC0000" opacity="0.07" rx="7"/><rect x="231" y="112" width="5" height="18" fill="#CC0000" rx="2.5"/><rect x="224" y="119" width="19" height="5" fill="#CC0000" rx="2.5"/><rect x="444" y="112" width="5" height="18" fill="#CC0000" rx="2.5"/><rect x="437" y="119" width="19" height="5" fill="#CC0000" rx="2.5"/><rect x="231" y="270" width="5" height="18" fill="#CC0000" rx="2.5"/><rect x="224" y="277" width="19" height="5" fill="#CC0000" rx="2.5"/><rect x="444" y="270" width="5" height="18" fill="#CC0000" rx="2.5"/><rect x="437" y="277" width="19" height="5" fill="#CC0000" rx="2.5"/><g transform="translate(249,122)"><path d="M28 2C28 2 2 22 2 38C2 50 12 57 22 52C19 61 14 66 14 66L42 66C42 66 37 61 34 52C44 57 54 50 54 38C54 22 28 2 28 2Z" fill="#1a1a1a"/></g><g transform="translate(374,124)"><path d="M27 54C27 54 0 34 0 18C0 8 8 0 18 0C22 0 26 2 27 6C28 2 32 0 36 0C46 0 54 8 54 18C54 34 27 54 27 54Z" fill="#CC0000"/></g><g transform="translate(250,210)"><path d="M26 0L52 30L26 60L0 30Z" fill="#CC0000"/></g><g transform="translate(376,207)"><circle cx="16" cy="22" r="15" fill="#1a1a1a"/><circle cx="38" cy="22" r="15" fill="#1a1a1a"/><circle cx="27" cy="9" r="15" fill="#1a1a1a"/><rect x="21" y="30" width="12" height="22" fill="#1a1a1a" rx="2"/><rect x="15" y="48" width="24" height="7" fill="#1a1a1a" rx="3"/></g><circle cx="340" cy="200" r="30" fill="white" stroke="#CC0000" stroke-width="2.5"/><circle cx="340" cy="200" r="26" fill="none" stroke="#CC0000" stroke-width="0.5" opacity="0.5"/><rect x="337" y="180" width="6" height="40" fill="#CC0000" rx="3"/><rect x="320" y="197" width="40" height="6" fill="#CC0000" rx="3"/><circle cx="340" cy="179" r="4" fill="#CC0000"/><circle cx="340" cy="221" r="4" fill="#CC0000"/><circle cx="319" cy="200" r="4" fill="#CC0000"/><circle cx="361" cy="200" r="4" fill="#CC0000"/></svg>
